<?xml version="1.0" encoding="utf-8"?>
<!-- Generator: Adobe Illustrator 23.1.0, SVG Export Plug-In . SVG Version: 6.00 Build 0)  -->
<svg version="1.1" id="Layer_1" xmlns="http://www.w3.org/2000/svg" xmlns:xlink="http://www.w3.org/1999/xlink" x="0px" y="0px"
	 viewBox="0 0 640 480" style="enable-background:new 0 0 640 480;" xml:space="preserve">
<style type="text/css">
	.st0{fill:#06BEE1;}
</style>
<path class="st0" d="M179.4,179.2c0,7.2-0.9,13.7-2.7,19.6c-1.8,5.9-4.5,11-8.1,15.2c-3.6,4.3-8.2,7.5-13.8,9.8
	c-5.6,2.3-12.2,3.4-19.8,3.4c-7.6,0-14.2-1.1-19.8-3.4c-5.6-2.3-10.2-5.5-13.8-9.8c-3.6-4.3-6.3-9.3-8.1-15.2
	c-1.8-5.9-2.7-12.5-2.7-19.7c0-9.7,1.6-18.1,4.8-25.2c3.2-7.2,8-12.7,14.6-16.7c6.6-4,15-5.9,25.1-5.9c10.1,0,18.4,2,25,5.9
	c6.5,4,11.4,9.5,14.5,16.7C177.8,161.1,179.4,169.5,179.4,179.2z M111.3,179.2c0,6.5,0.8,12.1,2.5,16.8c1.6,4.7,4.2,8.3,7.7,10.8
	c3.5,2.5,8,3.8,13.5,3.8c5.6,0,10.2-1.3,13.7-3.8c3.5-2.5,6-6.1,7.6-10.8c1.6-4.7,2.4-10.3,2.4-16.8c0-9.8-1.8-17.5-5.5-23.1
	c-3.7-5.6-9.7-8.4-18.1-8.4c-5.6,0-10.1,1.3-13.6,3.8c-3.5,2.5-6.1,6.1-7.7,10.8C112.1,167,111.3,172.7,111.3,179.2z"/>
<path class="st0" d="M238.3,147.8c-3.8,0-7.1,0.7-10,2.2c-2.9,1.5-5.4,3.6-7.3,6.3c-2,2.8-3.5,6.1-4.5,10c-1,3.9-1.5,8.3-1.5,13.2
	c0,6.6,0.8,12.2,2.5,16.9c1.6,4.7,4.2,8.2,7.6,10.7c3.4,2.4,7.9,3.7,13.3,3.7c3.8,0,7.6-0.4,11.4-1.3c3.8-0.8,7.9-2.1,12.4-3.6v16.6
	c-4.1,1.7-8.2,2.9-12.2,3.7c-4,0.7-8.5,1.1-13.5,1.1c-9.6,0-17.5-2-23.7-6c-6.2-4-10.8-9.5-13.7-16.7c-3-7.2-4.5-15.5-4.5-25.1
	c0-7.1,1-13.5,2.9-19.4c1.9-5.9,4.7-11,8.4-15.2c3.7-4.3,8.3-7.6,13.7-10c5.4-2.3,11.7-3.5,18.8-3.5c4.6,0,9.3,0.6,13.9,1.8
	c4.7,1.2,9.1,2.8,13.4,4.8l-6.4,16.1c-3.5-1.7-7-3.1-10.5-4.3C245.2,148.4,241.7,147.8,238.3,147.8z"/>
<path class="st0" d="M412.2,226l-6.8-22.2h-34l-6.8,22.2h-21.3l32.9-93.6h24.2l33,93.6H412.2z M400.7,187.2l-6.8-21.7
	c-0.4-1.4-1-3.3-1.7-5.6c-0.7-2.3-1.4-4.6-2.1-7c-0.7-2.4-1.3-4.4-1.7-6.2c-0.4,1.7-1,3.9-1.8,6.5c-0.7,2.6-1.5,5-2.1,7.3
	c-0.7,2.3-1.2,3.9-1.5,4.9l-6.7,21.7H400.7z"/>
<path class="st0" d="M528,226h-25.1l-40.6-70.6h-0.6c0.2,2.9,0.3,5.9,0.4,8.9c0.1,3,0.3,5.9,0.4,8.9c0.1,3,0.3,5.9,0.4,8.9V226
	h-17.7v-93.3h24.9l40.5,69.9h0.4c-0.1-2.9-0.2-5.8-0.3-8.6c-0.1-2.8-0.2-5.7-0.4-8.5c-0.1-2.8-0.2-5.7-0.3-8.5v-44.1H528V226z"/>
<path class="st0" d="M265.1,301.5c0,7.2-0.9,13.7-2.7,19.6c-1.8,5.9-4.5,11-8.1,15.2c-3.6,4.3-8.2,7.5-13.8,9.8
	c-5.6,2.3-12.2,3.4-19.8,3.4c-7.6,0-14.2-1.1-19.8-3.4c-5.6-2.3-10.2-5.5-13.8-9.8c-3.6-4.3-6.3-9.3-8.1-15.2
	c-1.8-5.9-2.7-12.5-2.7-19.7c0-9.7,1.6-18.1,4.8-25.2c3.2-7.2,8-12.7,14.6-16.7c6.6-4,15-5.9,25.1-5.9c10.1,0,18.4,2,25,5.9
	c6.5,4,11.4,9.5,14.5,16.7C263.6,283.4,265.1,291.8,265.1,301.5z M197.1,301.5c0,6.5,0.8,12.1,2.5,16.8c1.6,4.7,4.2,8.3,7.7,10.8
	c3.5,2.5,8,3.8,13.5,3.8c5.6,0,10.2-1.3,13.7-3.8c3.5-2.5,6-6.1,7.6-10.8c1.6-4.7,2.4-10.3,2.4-16.8c0-9.8-1.8-17.5-5.5-23.1
	c-3.7-5.6-9.7-8.4-18.1-8.4c-5.6,0-10.1,1.3-13.6,3.8c-3.5,2.5-6.1,6.1-7.7,10.8C197.9,289.4,197.1,295,197.1,301.5z"/>
<path class="st0" d="M367.2,348.3h-25.1l-40.6-70.6h-0.6c0.2,2.9,0.3,5.9,0.4,8.9c0.1,3,0.3,5.9,0.4,8.9c0.1,3,0.3,5.9,0.4,8.9v43.9
	h-17.7V255h24.9l40.5,69.9h0.4c-0.1-2.9-0.2-5.8-0.3-8.6c-0.1-2.8-0.2-5.7-0.4-8.5c-0.1-2.8-0.2-5.7-0.3-8.5V255h17.8V348.3z"/>
<path class="st0" d="M444.4,348.3h-53.7V255h53.7v16.2h-33.9v20.5H442v16.2h-31.6v24h33.9V348.3z"/>
<path class="st0" d="M282,150.9c0,0,14.9,9.8,27,0c12.1-9.8,27,0,27,0v-16c0,0-13.4-8-27,0s-27,0-27,0V150.9z"/>
<path class="st0" d="M282,222.9c0,0,14.9,9.8,27,0c12.1-9.8,27,0,27,0v-16c0,0-13.4-8-27,0s-27,0-27,0V222.9z"/>
<path class="st0" d="M315.6,168.6c-9.8,5.8-19.4,0-19.4,0v4.5c0,0,9.6,5.8,19.4,0s19.4,0,19.4,0v-4.5
	C335.1,168.6,325.4,162.9,315.6,168.6z"/>
<path class="st0" d="M316.6,186.1c-9.8,5.8-19.4,0-19.4,0v4.5c0,0,9.6,5.8,19.4,0c9.8-5.8,19.4,0,19.4,0v-4.5
	C336,186.1,326.4,180.3,316.6,186.1z"/>
</svg>
