<?xml version="1.0" encoding="utf-8"?>
<!-- Generator: Adobe Illustrator 23.1.0, SVG Export Plug-In . SVG Version: 6.00 Build 0)  -->
<svg version="1.1" id="Layer_1" xmlns="http://www.w3.org/2000/svg" xmlns:xlink="http://www.w3.org/1999/xlink" x="0px" y="0px"
	 viewBox="0 0 480 480" style="enable-background:new 0 0 480 480;" xml:space="preserve">
<style type="text/css">
	.st0{fill:#06BEE1;}
</style>
<path class="st0" d="M128.5,122.8c0,0,61.6,40.4,111.5,0s111.5,0,111.5,0V56.7c0,0-55.3-33-111.5,0s-111.5,0-111.5,0V122.8z"/>
<path class="st0" d="M128.5,420c0,0,61.6,40.4,111.5,0s111.5,0,111.5,0v-66.1c0,0-55.3-33-111.5,0s-111.5,0-111.5,0V420z"/>
<path class="st0" d="M267.5,196c-40.4,23.8-80.2,0-80.2,0v18.7c0,0,39.7,23.8,80.2,0s80.2,0,80.2,0V196
	C347.6,196,307.9,172.3,267.5,196z"/>
<path class="st0" d="M271.3,267.9c-40.4,23.8-80.2,0-80.2,0v18.7c0,0,39.7,23.8,80.2,0c40.4-23.8,80.2,0,80.2,0v-18.7
	C351.5,267.9,311.8,244.2,271.3,267.9z"/>
</svg>
